<svg width="154" height="446" viewBox="0 0 154 446" fill="none" xmlns="http://www.w3.org/2000/svg">
<path d="M0 21.3745C84.6265 21.3745 153.23 89.9778 153.23 174.604H0V21.3745Z" fill="#009379"/>
<path d="M47.6712 428.067L54.3227 428.067L54.3227 421.184L47.6712 421.184L47.6712 428.067ZM103.048 371.605C103.048 371.139 102.683 370.762 102.233 370.762L94.9012 370.762C94.4513 370.762 94.0866 371.139 94.0866 371.605C94.0866 372.07 94.4513 372.448 94.9012 372.448L101.418 372.448L101.418 379.192C101.418 379.657 101.783 380.035 102.233 380.035C102.683 380.035 103.048 379.657 103.048 379.192L103.048 371.605ZM51.573 425.222L102.809 372.201L101.657 371.009L50.4209 424.029L51.573 425.222Z" fill="#2D2D2D"/>
</svg>
