<svg width="21" height="20" viewBox="0 0 21 20" fill="none" xmlns="http://www.w3.org/2000/svg">
<path d="M9.43664 1.81699C9.80345 1.07374 10.8633 1.07374 11.2301 1.81699L13.0396 5.48347C13.1853 5.77862 13.4669 5.98319 13.7926 6.03051L17.8388 6.61846C18.659 6.73765 18.9865 7.74562 18.393 8.32416L15.4651 11.1781C15.2294 11.4079 15.1219 11.7389 15.1775 12.0632L15.8687 16.0931C16.0088 16.91 15.1514 17.533 14.4178 17.1473L10.7987 15.2446C10.5074 15.0915 10.1594 15.0915 9.86803 15.2446L6.24899 17.1473C5.51537 17.533 4.65793 16.91 4.79804 16.0931L5.48922 12.0632C5.54486 11.7389 5.43731 11.4079 5.20162 11.1781L2.27376 8.32416C1.68024 7.74562 2.00775 6.73765 2.82797 6.61846L6.87418 6.03051C7.19989 5.98319 7.48146 5.77862 7.62712 5.48347L9.43664 1.81699Z" fill="#2D2D2D"/>
</svg>
